<?xml version="1.0" standalone="no"?>
<!DOCTYPE svg PUBLIC "-//W3C//DTD SVG 20010904//EN"
 "http://www.w3.org/TR/2001/REC-SVG-20010904/DTD/svg10.dtd">
<svg version="1.0" xmlns="http://www.w3.org/2000/svg"
 width="700.000000pt" height="700.000000pt" viewBox="0 0 700.000000 700.000000"
 preserveAspectRatio="xMidYMid meet">
<metadata>
Created by potrace 1.11, written by Peter Selinger 2001-2013
</metadata>
<g transform="translate(0.000000,700.000000) scale(0.100000,-0.100000)"
fill="#000000" stroke="none">
<path d="M2127 6994 c-1 -1 -31 -4 -67 -8 -377 -37 -776 -207 -1076 -459 -403
-338 -655 -804 -721 -1332 -5 -33 -8 -773 -8 -1645 l0 -1585 25 1 c91 4 243
15 249 18 3 2 29 7 56 10 156 21 379 93 560 182 286 140 509 323 726 594 143
179 287 475 354 730 4 16 25 120 30 145 3 17 7 41 10 55 17 80 20 343 20 1745
l0 1550 -78 0 c-43 1 -79 0 -80 -1z"/>
<path d="M4319 6995 c-2 -2 -31 -6 -64 -9 -274 -25 -591 -134 -839 -288 -222
-137 -472 -371 -596 -558 -8 -12 -27 -40 -42 -61 -107 -150 -247 -484 -284
-674 -5 -22 -9 -42 -9 -45 -14 -69 -22 -124 -30 -215 -14 -162 -14 -174 4
-179 22 -6 2550 1 2581 7 14 3 43 7 65 10 169 22 389 87 560 165 264 120 539
329 704 532 20 25 44 54 54 65 26 29 127 180 167 250 158 277 253 608 264 918
l3 87 -1267 0 c-697 -1 -1269 -3 -1271 -5z"/>
<path d="M6818 5155 c-2 -1 -48 -5 -103 -8 -98 -6 -156 -12 -205 -22 -14 -3
-38 -8 -54 -11 -179 -32 -419 -120 -591 -218 -364 -205 -646 -501 -834 -875
-75 -149 -148 -362 -168 -486 -2 -16 -8 -46 -13 -65 -8 -32 -13 -66 -25 -185
-4 -30 -8 -2440 -5 -3068 l0 -98 111 5 c60 3 120 8 132 11 12 3 40 7 62 9 151
18 390 90 559 170 612 290 1044 864 1145 1521 6 39 14 88 17 110 4 22 8 752 8
1622 2 1490 1 1582 -16 1586 -9 3 -18 4 -20 2z"/>
<path d="M2005 2029 c-33 -4 -89 -10 -125 -14 -36 -4 -68 -9 -71 -11 -4 -2
-23 -6 -44 -10 -132 -21 -387 -113 -540 -194 -310 -166 -588 -427 -775 -725
-51 -82 -150 -278 -150 -298 0 -7 -4 -17 -8 -22 -16 -18 -81 -221 -97 -300
-34 -174 -47 -280 -49 -400 l-1 -50 1260 -1 c721 -1 1292 2 1335 8 136 16 364
68 435 98 11 5 46 18 77 29 191 68 414 202 594 356 145 124 302 307 401 466
150 240 249 517 289 809 12 81 19 205 15 251 -1 15 -107 16 -1243 15 -684 0
-1270 -3 -1303 -7z"/>
</g>
</svg>
