<svg width="48" height="48" viewBox="0 0 48 48" fill="none" xmlns="http://www.w3.org/2000/svg">
<path d="M14.6667 9.33334H10.6667C10.313 9.33334 9.97391 9.47382 9.72386 9.72387C9.47381 9.97392 9.33333 10.3131 9.33333 10.6667V37.3333C9.33333 37.687 9.47381 38.0261 9.72386 38.2762C9.97391 38.5262 10.313 38.6667 10.6667 38.6667H14.6667V9.33334Z" fill="#D6B1FF"/>
<path d="M17.3333 38.6667H30.6667V9.33334H17.3333V38.6667ZM24 33.3333C23.6464 33.3333 23.3072 33.1929 23.0572 32.9428C22.8071 32.6928 22.6667 32.3536 22.6667 32C22.6667 31.6464 22.8071 31.3072 23.0572 31.0572C23.3072 30.8071 23.6464 30.6667 24 30.6667C24.3536 30.6667 24.6928 30.8071 24.9428 31.0572C25.1929 31.3072 25.3333 31.6464 25.3333 32C25.3333 32.3536 25.1929 32.6928 24.9428 32.9428C24.6928 33.1929 24.3536 33.3333 24 33.3333ZM24 14.6667C24.3536 14.6667 24.6928 14.8072 24.9428 15.0572C25.1929 15.3072 25.3333 15.6464 25.3333 16C25.3333 16.3536 25.1929 16.6928 24.9428 16.9428C24.6928 17.1929 24.3536 17.3333 24 17.3333C23.6464 17.3333 23.3072 17.1929 23.0572 16.9428C22.8071 16.6928 22.6667 16.3536 22.6667 16C22.6667 15.6464 22.8071 15.3072 23.0572 15.0572C23.3072 14.8072 23.6464 14.6667 24 14.6667ZM24 22.6667C24.3536 22.6667 24.6928 22.8072 24.9428 23.0572C25.1929 23.3072 25.3333 23.6464 25.3333 24C25.3333 24.3536 25.1929 24.6928 24.9428 24.9428C24.6928 25.1929 24.3536 25.3333 24 25.3333C23.6464 25.3333 23.3072 25.1929 23.0572 24.9428C22.8071 24.6928 22.6667 24.3536 22.6667 24C22.6667 23.6464 22.8071 23.3072 23.0572 23.0572C23.3072 22.8072 23.6464 22.6667 24 22.6667Z" fill="#8C30F5"/>
<path d="M37.3333 9.33334H33.3333V38.6667H37.3333C37.687 38.6667 38.0261 38.5262 38.2761 38.2762C38.5262 38.0261 38.6667 37.687 38.6667 37.3333V10.6667C38.6667 10.3131 38.5262 9.97392 38.2761 9.72387C38.0261 9.47382 37.687 9.33334 37.3333 9.33334Z" fill="#2EC5CE"/>
</svg>
